# Blender v2.92.0 OBJ File: ''
# www.blender.org
mtllib skybox.mtl
o Cube_Cube.001
v -16.314411 -16.314411 16.314411
v -16.314411 16.314411 16.314411
v -16.314411 -16.314411 -16.314411
v -16.314411 16.314411 -16.314411
v 16.314411 -16.314411 16.314411
v 16.314411 16.314411 16.314411
v 16.314411 -16.314411 -16.314411
v 16.314411 16.314411 -16.314411
vt 0.756228 0.334749
vt 0.999665 0.665306
vt 0.998791 0.335829
vt 0.499099 0.335143
vt 0.755478 0.665307
vt 0.251839 0.335583
vt 0.499202 0.664879
vt 0.000971 0.334648
vt 0.251081 0.665097
vt 0.251899 0.002113
vt 0.497674 0.002413
vt 0.499083 0.998614
vt 0.001129 0.664914
vt 0.250882 0.998593
vn 1.0000 0.0000 0.0000
vn 0.0000 0.0000 1.0000
vn -1.0000 0.0000 0.0000
vn 0.0000 0.0000 -1.0000
vn 0.0000 1.0000 0.0000
vn 0.0000 -1.0000 0.0000
usemtl Material.001
s off
f 3/1/1 2/2/1 1/3/1
f 7/4/2 4/5/2 3/1/2
f 5/6/3 8/7/3 7/4/3
f 1/8/4 6/9/4 5/6/4
f 1/10/5 7/4/5 3/11/5
f 6/9/6 4/12/6 8/7/6
f 3/1/1 4/5/1 2/2/1
f 7/4/2 8/7/2 4/5/2
f 5/6/3 6/9/3 8/7/3
f 1/8/4 2/13/4 6/9/4
f 1/10/5 5/6/5 7/4/5
f 6/9/6 2/14/6 4/12/6
